<svg xmlns="http://www.w3.org/2000/svg" version="1.1" xmlns:xlink="http://www.w3.org/1999/xlink" xmlns:svgjs="http://svgjs.dev/svgjs" width="2000" height="1500" viewBox="0 0 2000 1500"><rect width="2000" height="1500" fill="#000000"></rect><g transform="matrix(0.75,0,0,0.75,249.090909090909,322.3672616454819)"><svg viewBox="0 0 396 247" data-background-color="#000000" preserveAspectRatio="xMidYMid meet" height="1247" width="2000" xmlns="http://www.w3.org/2000/svg" xmlns:xlink="http://www.w3.org/1999/xlink"><g id="tight-bounds" transform="matrix(1,0,0,1,0.2400000000000091,-0.09999999999999432)"><svg viewBox="0 0 395.52 247.2" height="247.2" width="395.52"><g><svg></svg></g><g><svg viewBox="0 0 395.52 247.2" height="247.2" width="395.52"><g transform="matrix(1,0,0,1,75.54432,48.77504548713952)"><svg viewBox="0 0 244.43135999999998 149.64990902572094" height="149.64990902572094" width="244.43135999999998"><g><svg viewBox="0 0 244.43135999999998 149.64990902572094" height="149.64990902572094" width="244.43135999999998"><g><svg viewBox="0 0 244.43135999999998 149.64990902572094" height="149.64990902572094" width="244.43135999999998"><g><svg viewBox="0 0 244.43135999999998 149.64990902572094" height="149.64990902572094" width="244.43135999999998"><g id="textblocktransform"><svg viewBox="0 0 244.43135999999998 149.64990902572094" height="149.64990902572094" width="244.43135999999998" id="textblock"><g><svg viewBox="0 0 244.43135999999998 149.64990902572094" height="149.64990902572094" width="244.43135999999998"><g transform="matrix(1,0,0,1,0,0)"><svg width="244.43135999999998" viewBox="1.95 -37.55 62.64999999999999 38.36" height="149.64990902572094" data-palette-color="#ffffff"><path d="M22.46-26.95Q22.46-29.1 21.68-30.18 20.9-31.25 19.96-31.82 19.02-32.4 17.9-32.7 16.77-33.01 15.65-33.01L15.65-33.01Q13.79-33.01 12.4-32.58 11.01-32.15 10.1-31.42 9.18-30.69 8.72-29.71 8.25-28.74 8.25-27.66L8.25-27.66Q8.25-26.05 8.83-25.06 9.4-24.07 10.28-23.47 11.16-22.88 12.22-22.53 13.28-22.19 14.26-21.85L14.26-21.85 19.19-20.24Q21.41-19.53 23.11-18.63 24.8-17.72 25.95-16.49 27.1-15.26 27.7-13.65 28.3-12.04 28.3-9.91L28.3-9.91Q28.3-7.62 27.36-5.66 26.42-3.71 24.73-2.27 23.05-0.83 20.72-0.01 18.38 0.81 15.6 0.81L15.6 0.81Q12.74 0.81 10.72 0.16 8.69-0.49 7.31-1.57 5.93-2.66 5.1-4.05 4.27-5.44 3.81-6.91L3.81-6.91 1.95-6.91 1.95-11.11 8.11-11.11Q8.11-8.4 8.68-7.28 9.25-6.15 10.28-5.41 11.3-4.66 12.72-4.28 14.14-3.91 15.84-3.91L15.84-3.91Q17.5-3.91 18.84-4.3 20.17-4.69 21.11-5.43 22.05-6.18 22.55-7.24 23.05-8.3 23.05-9.64L23.05-9.64Q23.05-11.13 22.42-12.17 21.8-13.21 20.83-13.94 19.85-14.67 18.69-15.14 17.53-15.6 16.46-15.94L16.46-15.94 11.11-17.46Q9.35-17.99 7.9-18.82 6.45-19.65 5.41-20.85 4.37-22.05 3.81-23.65 3.25-25.24 3.25-27.34L3.25-27.34Q3.25-29.47 4.08-31.32 4.91-33.18 6.52-34.57 8.13-35.96 10.46-36.76 12.79-37.55 15.8-37.55L15.8-37.55Q17.77-37.55 19.45-37.08 21.12-36.62 22.47-35.78 23.83-34.94 24.87-33.75 25.9-32.57 26.61-31.15L26.61-31.15 28.44-31.15 28.44-26.95 22.46-26.95ZM33.03-32.79L33.03-37.01 46.8-37.01Q49.34-37.01 51.63-36.35 53.93-35.69 55.91-34.5 57.88-33.3 59.49-31.63 61.11-29.96 62.24-27.91 63.38-25.85 63.99-23.5 64.6-21.14 64.6-18.6L64.6-18.6Q64.6-16.02 63.99-13.65 63.38-11.28 62.24-9.2 61.11-7.13 59.49-5.43 57.88-3.74 55.91-2.53 53.93-1.32 51.63-0.66 49.34 0 46.8 0L46.8 0 33.03 0 33.03-4.2 36.55-4.2 36.55-32.79 33.03-32.79ZM47.09-32.79L41.33-32.79 41.33-4.2 47.09-4.2Q49.66-4.2 51.91-5.32 54.17-6.45 55.86-8.39 57.54-10.33 58.52-12.95 59.49-15.58 59.49-18.6L59.49-18.6Q59.49-21.58 58.52-24.17 57.54-26.76 55.86-28.67 54.17-30.59 51.91-31.69 49.66-32.79 47.09-32.79L47.09-32.79Z" opacity="1" transform="matrix(1,0,0,1,0,0)" fill="#ffffff" class="wordmark-text-0" data-fill-palette-color="primary" id="text-0"></path></svg></g></svg></g></svg></g></svg></g><g></g></svg></g></svg></g></svg></g><g><path d="M144.818 13.446A122.216 122.216 0 0 1 250.702 13.446L237.206 13.446A108.72 108.72 0 0 0 158.314 13.446L144.818 13.446M144.818 233.754A122.216 122.216 0 0 0 250.702 233.754L237.206 233.754A108.72 108.72 0 0 1 158.314 233.754L144.818 233.754" fill="#ffffff" stroke="transparent" data-fill-palette-color="tertiary"></path></g></svg></g><defs></defs></svg><rect width="395.52" height="247.2" fill="none" stroke="none" visibility="hidden"></rect></g></svg></g></svg>